<?xml version="1.0" encoding="UTF-8"?>
<!DOCTYPE svg PUBLIC "-//W3C//DTD SVG 1.1//EN" "http://www.w3.org/Graphics/SVG/1.1/DTD/svg11.dtd">
<svg xmlns="http://www.w3.org/2000/svg" version="1.1" width="500px" height="200px" style="shape-rendering:geometricPrecision; text-rendering:geometricPrecision; image-rendering:optimizeQuality; fill-rule:evenodd; clip-rule:evenodd" xmlns:xlink="http://www.w3.org/1999/xlink">
<g><path style="opacity:0.996" fill="#81b823" d="M 412.5,17.5 C 412.918,18.2216 413.584,18.7216 414.5,19C 419.5,19.3333 424.5,19.6667 429.5,20C 433.498,21.2315 437.498,22.3982 441.5,23.5C 441.842,24.3382 442.508,24.6716 443.5,24.5C 447.447,26.4825 451.114,28.9825 454.5,32C 458.071,32.4482 461.404,31.9482 464.5,30.5C 466.735,30.7947 468.735,30.4614 470.5,29.5C 473.167,30.1667 474.833,31.8333 475.5,34.5C 476.692,39.8941 478.192,45.2274 480,50.5C 480.501,54.5101 481.001,58.5101 481.5,62.5C 481.334,68.1764 481.501,73.8431 482,79.5C 483.847,87.8502 485.68,96.1835 487.5,104.5C 486.837,107.806 486.337,111.139 486,114.5C 478.833,128.333 468.333,138.833 454.5,146C 442.657,158.923 427.991,166.589 410.5,169C 386.809,171.67 363.143,174.67 339.5,178C 335.244,178.701 331.244,179.868 327.5,181.5C 318.574,183.251 309.574,184.584 300.5,185.5C 299.058,184.18 298.392,182.514 298.5,180.5C 289.685,181.389 281.019,182.389 272.5,183.5C 266.833,183.5 261.167,183.5 255.5,183.5C 253.369,182.686 251.036,182.186 248.5,182C 247.44,180.702 246.274,179.535 245,178.5C 240.273,179.914 235.44,180.748 230.5,181C 212.971,181.081 195.638,181.914 178.5,183.5C 171.167,183.5 163.833,183.5 156.5,183.5C 144.997,182.639 133.33,181.972 121.5,181.5C 115.145,180.629 108.812,179.629 102.5,178.5C 99.5475,176.59 96.2142,175.59 92.5,175.5C 87.8704,173.521 83.2038,171.521 78.5,169.5C 78.5,168.833 78.1667,168.5 77.5,168.5C 74.8537,164.355 71.1871,161.521 66.5,160C 61.7563,154.26 56.0896,149.594 49.5,146C 42.9957,139.829 36.8291,133.329 31,126.5C 27.4258,116.808 23.2591,107.475 18.5,98.5C 18.5,98.1667 18.5,97.8333 18.5,97.5C 18.5,96.8333 18.1667,96.5 17.5,96.5C 17.405,94.2143 16.7384,92.2143 15.5,90.5C 15.5,90.1667 15.5,89.8333 15.5,89.5C 15.6716,88.5084 15.3382,87.8417 14.5,87.5C 14.5,86.8333 14.5,86.1667 14.5,85.5C 14.6716,84.5084 14.3382,83.8417 13.5,83.5C 13.5,82.1667 13.5,80.8333 13.5,79.5C 13.7373,78.209 13.404,77.209 12.5,76.5C 12.5,71.1667 12.5,65.8333 12.5,60.5C 13.1667,60.5 13.5,60.1667 13.5,59.5C 13.5,58.8333 13.5,58.1667 13.5,57.5C 15.864,53.9765 19.0306,51.3098 23,49.5C 25.248,41.5802 30.0813,35.7468 37.5,32C 52.2784,28.4687 67.2784,26.4687 82.5,26C 84.3146,25.2432 85.9812,24.4098 87.5,23.5C 99.8124,22.5209 112.146,21.8542 124.5,21.5C 146.833,21.5 169.167,21.5 191.5,21.5C 239.197,21.1812 286.863,21.5145 334.5,22.5C 335.263,23.2679 336.263,23.7679 337.5,24C 344.52,24.2788 351.52,24.7788 358.5,25.5C 361.941,24.4886 365.275,23.4886 368.5,22.5C 374.543,21.8159 380.21,20.1492 385.5,17.5C 394.505,16.2684 403.505,16.2684 412.5,17.5 Z M 334.5,22.5 C 345.833,22.5 357.167,22.5 368.5,22.5C 365.275,23.4886 361.941,24.4886 358.5,25.5C 351.52,24.7788 344.52,24.2788 337.5,24C 336.263,23.7679 335.263,23.2679 334.5,22.5 Z M 255.5,183.5 C 229.833,183.5 204.167,183.5 178.5,183.5C 195.638,181.914 212.971,181.081 230.5,181C 235.44,180.748 240.273,179.914 245,178.5C 246.274,179.535 247.44,180.702 248.5,182C 251.036,182.186 253.369,182.686 255.5,183.5 Z"/></g>
<g><path style="opacity:0.77" fill="#000000" d="M 385.5,17.5 C 380.21,20.1492 374.543,21.8159 368.5,22.5C 357.167,22.5 345.833,22.5 334.5,22.5C 286.863,21.5145 239.197,21.1812 191.5,21.5C 193.631,20.6862 195.964,20.1862 198.5,20C 260.808,17.7779 323.141,16.9446 385.5,17.5 Z"/></g>
<g><path style="opacity:0.755" fill="#040501" d="M 412.5,17.5 C 430.382,16.4255 447.715,18.9255 464.5,25C 466.389,26.7641 468.389,28.2641 470.5,29.5C 468.735,30.4614 466.735,30.7947 464.5,30.5C 457.981,26.8833 450.981,24.8833 443.5,24.5C 443.158,23.6618 442.492,23.3284 441.5,23.5C 437.498,22.3982 433.498,21.2315 429.5,20C 424.5,19.6667 419.5,19.3333 414.5,19C 413.584,18.7216 412.918,18.2216 412.5,17.5 Z"/></g>
<g><path style="opacity:0.801" fill="#000000" d="M 124.5,21.5 C 112.146,21.8542 99.8124,22.5209 87.5,23.5C 74.8289,23.3334 62.1623,23.5001 49.5,24C 46.2397,24.9749 43.073,26.1416 40,27.5C 39,26.8333 38,26.1667 37,25.5C 28.7114,32.1248 21.3781,39.7915 15,48.5C 14.4978,51.5131 13.9978,54.5131 13.5,57.5C 13.5,58.1667 13.5,58.8333 13.5,59.5C 12.8333,59.5 12.5,59.8333 12.5,60.5C 12.5,65.8333 12.5,71.1667 12.5,76.5C 12.2627,77.791 12.596,78.791 13.5,79.5C 13.5,80.8333 13.5,82.1667 13.5,83.5C 13.3284,84.4916 13.6618,85.1583 14.5,85.5C 14.5,86.1667 14.5,86.8333 14.5,87.5C 14.3284,88.4916 14.6618,89.1583 15.5,89.5C 15.5,89.8333 15.5,90.1667 15.5,90.5C 15.2594,92.8984 15.9261,94.8984 17.5,96.5C 18.1667,96.5 18.5,96.8333 18.5,97.5C 18.5,97.8333 18.5,98.1667 18.5,98.5C 22.2726,117.709 30.1059,135.042 42,150.5C 51.8829,160.358 63.7163,166.358 77.5,168.5C 78.1667,168.5 78.5,168.833 78.5,169.5C 83.2038,171.521 87.8704,173.521 92.5,175.5C 75.9291,174.37 60.5957,169.536 46.5,161C 36.318,151.465 28.4847,140.299 23,127.5C 18.0604,114.348 13.727,101.015 10,87.5C 7.79743,73.768 8.13077,60.1014 11,46.5C 13.6153,42.2171 16.6153,38.2171 20,34.5C 23.5,31 27,27.5 30.5,24C 33.4653,21.6703 36.632,21.1703 40,22.5C 41.2547,21.7894 42.4214,20.956 43.5,20C 67.5,19.3333 91.5,19.3333 115.5,20C 118.695,20.1805 121.695,20.6805 124.5,21.5 Z"/></g>
<g><path style="opacity:0.809" fill="#000000" d="M 475.5,34.5 C 479.521,41.373 482.687,48.7063 485,56.5C 490.261,76.8065 492.595,97.4732 492,118.5C 491.332,123.846 489.666,128.846 487,133.5C 481.521,141.279 475.021,148.112 467.5,154C 453.721,162.401 439.054,169.068 423.5,174C 408.179,177.219 392.846,180.219 377.5,183C 356.889,185.186 336.222,186.52 315.5,187C 312.576,187.988 309.576,188.654 306.5,189C 275.353,188.083 244.186,187.583 213,187.5C 194.791,187.506 176.624,187.84 158.5,188.5C 151.868,186.182 145.202,184.516 138.5,183.5C 144.5,183.5 150.5,183.5 156.5,183.5C 163.833,183.5 171.167,183.5 178.5,183.5C 204.167,183.5 229.833,183.5 255.5,183.5C 261.167,183.5 266.833,183.5 272.5,183.5C 281.799,184.588 291.133,185.254 300.5,185.5C 309.574,184.584 318.574,183.251 327.5,181.5C 343.554,181.718 359.554,180.885 375.5,179C 390.869,176.216 406.202,173.216 421.5,170C 438.628,164.434 454.628,156.767 469.5,147C 474.384,141.622 479.05,136.122 483.5,130.5C 485.813,126.111 487.313,121.444 488,116.5C 488.328,104.124 487.661,91.7908 486,79.5C 484.408,73.7132 482.908,68.0465 481.5,62.5C 481.001,58.5101 480.501,54.5101 480,50.5C 478.192,45.2274 476.692,39.8941 475.5,34.5 Z"/></g>
<g><path style="opacity:0.448" fill="#101404" d="M 92.5,175.5 C 96.2142,175.59 99.5475,176.59 102.5,178.5C 98.7417,178.605 95.4083,177.605 92.5,175.5 Z"/></g>
<g><path style="opacity:1" fill="#395011" d="M 121.5,181.5 C 133.33,181.972 144.997,182.639 156.5,183.5C 150.5,183.5 144.5,183.5 138.5,183.5C 132.583,183.784 126.916,183.117 121.5,181.5 Z"/></g>
</svg>
