<?xml version="1.0" encoding="UTF-8"?>
<!DOCTYPE svg PUBLIC "-//W3C//DTD SVG 1.1//EN" "http://www.w3.org/Graphics/SVG/1.1/DTD/svg11.dtd">
<svg xmlns="http://www.w3.org/2000/svg" version="1.1" width="661px" height="75px" style="shape-rendering:geometricPrecision; text-rendering:geometricPrecision; image-rendering:optimizeQuality; fill-rule:evenodd; clip-rule:evenodd" xmlns:xlink="http://www.w3.org/1999/xlink">
<g><path style="opacity:0.939" fill="#030303" d="M 423.5,1.5 C 473.501,1.33334 523.501,1.50001 573.5,2C 586.813,3.24874 600.146,4.24874 613.5,5C 624.535,6.90907 635.535,8.90907 646.5,11C 648.7,13.2336 650.533,15.7336 652,18.5C 656.019,31.9088 657.353,45.5754 656,59.5C 654.833,62 653,63.8333 650.5,65C 644.1,67.5993 637.433,68.9327 630.5,69C 608.125,69.0541 585.791,69.7208 563.5,71C 443,71.4094 322.5,71.9094 202,72.5C 161.823,72.5837 121.656,72.0837 81.5,71C 60.4017,68.5387 39.4017,65.5387 18.5,62C 14.7636,57.3631 11.9303,52.1964 10,46.5C 6.61211,36.7745 3.77877,26.9411 1.5,17C 2.72931,12.1923 5.72931,9.1923 10.5,8C 23.1584,6.93965 35.825,5.93965 48.5,5C 172.169,4.77697 295.836,4.1103 419.5,3C 421.058,2.78997 422.391,2.28997 423.5,1.5 Z"/></g>
<g><path style="opacity:1" fill="#fdfdfd" d="M 425.5,6.5 C 472.168,6.33334 518.835,6.50001 565.5,7C 581.425,8.87866 597.425,10.212 613.5,11C 623.654,12.2175 633.654,13.8842 643.5,16C 644.787,17.4095 645.954,18.9095 647,20.5C 647.465,25.6309 648.465,30.6309 650,35.5C 650.814,43.4128 650.647,51.2462 649.5,59C 642.797,61.8406 635.797,63.5072 628.5,64C 605.797,64.0649 583.13,64.7315 560.5,66C 401.5,66.6667 242.5,66.6667 83.5,66C 62.702,63.6152 42.0354,60.6152 21.5,57C 15.1573,44.8078 10.4906,31.9745 7.5,18.5C 7.92791,15.5708 9.59458,13.7375 12.5,13C 25.2772,12.7293 37.9438,11.7293 50.5,10C 174.169,9.77697 297.836,9.1103 421.5,8C 423.058,7.78997 424.391,7.28997 425.5,6.5 Z"/></g>
</svg>
