<?xml version="1.0" encoding="UTF-8"?>
<!DOCTYPE svg PUBLIC "-//W3C//DTD SVG 1.1//EN" "http://www.w3.org/Graphics/SVG/1.1/DTD/svg11.dtd">
<svg xmlns="http://www.w3.org/2000/svg" version="1.1" width="140px" height="80px" style="shape-rendering:geometricPrecision; text-rendering:geometricPrecision; image-rendering:optimizeQuality; fill-rule:evenodd; clip-rule:evenodd" xmlns:xlink="http://www.w3.org/1999/xlink">
<g><path style="opacity:0.879" fill="#000000" d="M 13.5,-0.5 C 15.8333,-0.5 18.1667,-0.5 20.5,-0.5C 49.9086,11.198 79.5752,22.3647 109.5,33C 119.498,35.9451 129.498,38.7785 139.5,41.5C 139.5,43.1667 139.5,44.8333 139.5,46.5C 136.806,48.5138 133.806,50.0138 130.5,51C 102.505,57.4651 74.5049,63.7984 46.5,70C 36.4175,72.4252 26.7509,75.5918 17.5,79.5C 13.5,79.5 9.5,79.5 5.5,79.5C 3.75164,77.8401 3.25164,75.8401 4,73.5C 10.7264,61.2032 18.5598,49.7032 27.5,39C 24.0532,27.607 18.8865,17.107 12,7.5C 11.5538,4.66727 12.0538,2.0006 13.5,-0.5 Z"/></g>
<g><path style="opacity:1" fill="#9cd140" d="M 12.5,73.5 C 15.5461,65.9332 19.5461,58.9332 24.5,52.5C 27.5566,48.6079 31.0566,45.2745 35,42.5C 38.9745,41.9222 42.9745,41.5889 47,41.5C 66.5966,42.1539 86.0966,43.4872 105.5,45.5C 105.714,43.8561 105.38,42.3561 104.5,41C 81.0737,37.1379 57.5737,35.6379 34,36.5C 31.1695,29.8633 28.3362,23.1966 25.5,16.5C 23.7091,13.5386 21.7091,10.7053 19.5,8C 19.8333,7.5 20.1667,7 20.5,6.5C 55.7682,20.2025 91.4349,33.0359 127.5,45C 105.063,49.7301 82.7293,54.7301 60.5,60C 44.3467,63.8006 28.3467,68.3006 12.5,73.5 Z"/></g>
</svg>
