<svg xmlns="http://www.w3.org/2000/svg" width="200" height="200" viewBox="0 0 200 200">
  <g fill="#000000" fill-rule="evenodd" transform="translate(36 22)">
    <path fill-rule="nonzero" d="M115.5 61L115.5 55 117.5 55C123.29899 55 128 59.7010101 128 65.5L128 80.5C128 86.2989899 123.29899 91 117.5 91L115.5 91 115.5 85 117.5 85C119.985281 85 122 82.9852814 122 80.5L122 65.5C122 63.0147186 119.985281 61 117.5 61L115.5 61zM12.5 85L12.5 91 10.5 91C4.70101013 91 .8817842e-16 86.2989899 0 80.5L0 65.5C-.8817842e-16 59.7010101 4.70101013 55 10.5 55L12.5 55 12.5 61 10.5 61C8.01471863 61 6 63.0147186 6 65.5L6 80.5C6 82.9852814 8.01471863 85 10.5 85L12.5 85z"/>
    <path fill-rule="nonzero" d="M39.546452,135.003048 L35.0364312,138.960283 C19.0401507,120.729486 11,107.273106 11,97.9999983 C11,87.9944623 11.0485899,78.1417637 11.1342035,67.7650982 C11.1579528,64.8865991 11.2682028,53.2789209 11.2682028,52.2870776 C11.2682028,23.40308 34.9026379,3.11679571e-11 64.0425163,0 C93.1823946,-1.30295774e-12 116.81683,23.40308 116.81683,52.2870776 C116.81683,53.2994399 116.892792,65.1071646 116.908368,67.8818994 C116.966847,78.299537 117,88.1153175 117,97.9999983 C117,107.015749 109.164013,120.351144 93.5613027,138.613246 L88.9995334,134.715778 C103.689599,117.521877 111,105.08093 111,97.9999983 C111,88.1278789 110.966883,78.3228409 110.908462,67.9155797 C110.893044,65.1689565 110.81683,53.3220082 110.81683,52.2870776 C110.81683,26.7300726 89.8818265,6 64.0425163,6 C38.203206,6 17.2682028,26.7300726 17.2682028,52.2870776 C17.2682028,53.3122451 17.1574143,64.976625 17.1339993,67.8146 C17.0485117,78.1759862 17,88.0128396 17,97.9999983 C17,105.30909 24.487477,117.840488 39.546452,135.003048 Z"/>
    <g transform="translate(30 53)">
      <path fill-rule="nonzero" d="M1.54348727,5.57247878 C0.122746468,6.42492326 -1.7200343,5.96422806 -2.57247878,4.54348727 C-3.42492326,3.12274647 -2.96422806,1.2799657 -1.54348727,0.427521223 C2.2387688,-1.84183242 6.09932741,-3 10,-3 C13.9006726,-3 17.7612312,-1.84183242 21.5434873,0.427521223 C22.9642281,1.2799657 23.4249233,3.12274647 22.5724788,4.54348727 C21.7200343,5.96422806 19.8772535,6.42492326 18.4565127,5.57247878 C15.5721021,3.84183242 12.7659941,3 10,3 C7.23400592,3 4.42789787,3.84183242 1.54348727,5.57247878 Z"/>
      <circle cx="10" cy="12" r="4"/>
    </g>
    <g transform="translate(78 53)">
      <path fill-rule="nonzero" d="M1.54348727,5.57247878 C0.122746468,6.42492326 -1.7200343,5.96422806 -2.57247878,4.54348727 C-3.42492326,3.12274647 -2.96422806,1.2799657 -1.54348727,0.427521223 C2.2387688,-1.84183242 6.09932741,-3 10,-3 C13.9006726,-3 17.7612312,-1.84183242 21.5434873,0.427521223 C22.9642281,1.2799657 23.4249233,3.12274647 22.5724788,4.54348727 C21.7200343,5.96422806 19.8772535,6.42492326 18.4565127,5.57247878 C15.5721021,3.84183242 12.7659941,3 10,3 C7.23400592,3 4.42789787,3.84183242 1.54348727,5.57247878 Z"/>
      <circle cx="10" cy="12" r="4"/>
    </g>
    <path fill-rule="nonzero" d="M60 81C60 79.3431458 61.3431458 78 63 78 64.6568542 78 66 79.3431458 66 81L66 92.6059032C66 95.367327 68.2385763 97.6059032 71 97.6059032L71.7290958 97.6059032C73.38595 97.6059032 74.7290958 98.949049 74.7290958 100.605903 74.7290958 102.262757 73.38595 103.605903 71.7290958 103.605903L71 103.605903C64.9248678 103.605903 60 98.6810355 60 92.6059032L60 81zM51.8517882 117.996337C50.1969572 117.914482 48.9218083 116.506619 49.0036634 114.851788 49.0855185 113.196957 50.4933807 111.921808 52.1482118 112.003663 61.1162051 112.447259 67.9375516 112.447259 72.5686107 112.013097 76.6649389 111.629067 79.6861849 110.274414 81.7849733 107.976721 82.9023993 106.753396 84.7999533 106.667547 86.0232787 107.784973 87.2466042 108.902399 87.3324527 110.799953 86.2150267 112.023279 83.0464469 115.492148 78.6334481 117.470828 73.1286549 117.986903 68.1585927 118.452846 61.0808507 118.452846 51.8517882 117.996337z"/>
    <g fill-rule="nonzero" transform="translate(20 38)">
      <path d="M21,45 C7.745166,45 -3,34.254834 -3,21 C-3,7.745166 7.745166,-3 21,-3 C34.254834,-3 45,7.745166 45,21 C45,34.254834 34.254834,45 21,45 Z M21,39 C30.9411255,39 39,30.9411255 39,21 C39,11.0588745 30.9411255,3 21,3 C11.0588745,3 3,11.0588745 3,21 C3,30.9411255 11.0588745,39 21,39 Z"/>
      <path d="M68,45 C54.745166,45 44,34.254834 44,21 C44,7.745166 54.745166,-3 68,-3 C81.254834,-3 92,7.745166 92,21 C92,34.254834 81.254834,45 68,45 Z M68,39 C77.9411255,39 86,30.9411255 86,21 C86,11.0588745 77.9411255,3 68,3 C58.0588745,3 50,11.0588745 50,21 C50,30.9411255 58.0588745,39 68,39 Z"/>
    </g>
    <path fill-rule="nonzero" d="M64.226561,129.725584 C52.4472304,129.740514 44.7808361,132.061269 40.9921426,136.392338 L52.0369916,148.386916 C52.9837109,149.415042 54.3175306,150 55.7151432,150 L72.9282882,150 C74.3438696,150 75.6931106,149.399958 76.6412023,148.348771 L87.4680937,136.344573 C83.6860358,132.016499 76.0177939,129.710638 64.226561,129.725584 Z M81.0966991,152.367297 C79.0108974,154.679907 76.0425672,156 72.9282882,156 L55.7151432,156 C52.6403955,156 49.7059921,154.713093 47.6232096,152.451215 L33.4352061,137.043208 L34.5440356,135.13155 C39.0252734,127.405754 49.0292137,123.744842 64.2189559,123.725588 C79.4104531,123.706333 89.4169713,127.342821 93.9005191,135.061235 L94.9993552,136.952877 L81.0966991,152.367297 Z"/>
  </g>
</svg>
