<svg xmlns="http://www.w3.org/2000/svg" width="200" height="200" viewBox="0 0 200 200">
  <g fill="#000000" fill-rule="evenodd" transform="translate(30)">
    <path fill-rule="nonzero" d="M121.5 83L121.5 77 123.5 77C129.29899 77 134 81.7010101 134 87.5L134 102.5C134 108.29899 129.29899 113 123.5 113L121.5 113 121.5 107 123.5 107C125.985281 107 128 104.985281 128 102.5L128 87.5C128 85.0147186 125.985281 83 123.5 83L121.5 83zM18.5 107L18.5 113 16.5 113C10.7010101 113 6 108.29899 6 102.5L6 87.5C6 81.7010101 10.7010101 77 16.5 77L18.5 77 18.5 83 16.5 83C14.0147186 83 12 85.0147186 12 87.5L12 102.5C12 104.985281 14.0147186 107 16.5 107L18.5 107z"/>
    <path fill-rule="nonzero" d="M104.984365,43.5152058 L109.444178,39.501471 C118.002497,49.0109438 122.81683,61.2815778 122.81683,74.2870785 C122.81683,75.2994408 122.892792,87.1071657 122.908368,89.8819006 C122.966847,100.299538 123,110.115319 123,120 C123,130.318333 112.66691,146.445659 92.0131043,169.162981 C86.8960341,174.791297 79.6421945,178 72.035463,178 L68.4539411,177.999999 C60.9801566,177.999999 53.8407012,174.902105 48.7353161,169.443854 C27.5885344,146.835486 17,130.608549 17,120 C17,109.994464 17.0485899,100.141765 17.1342035,89.7650994 C17.1579528,86.8866002 17.2682028,75.2789218 17.2682028,74.2870785 C17.2682028,71.5888174 17.4747441,68.9151694 17.8832205,66.2821736 L23.8122953,67.2019955 C23.4509886,69.5309403 23.2682028,71.8970766 23.2682028,74.2870785 C23.2682028,75.3122461 23.1574143,86.9766261 23.1339993,89.8146012 C23.0485117,100.175988 23,110.012841 23,120 C23,128.499122 33.0289819,143.868544 53.1172329,165.34522 C57.088088,169.590526 62.6409977,171.999999 68.4539421,171.999999 L72.035464,172 C77.9518099,172 83.5936851,169.504342 87.5736287,165.126763 C107.195335,143.544657 117,128.242068 117,120 C117,110.12788 116.966883,100.322842 116.908462,89.9155809 C116.893044,87.1689576 116.81683,75.3220092 116.81683,74.2870785 C116.81683,62.7801182 112.561634,51.9345969 104.984365,43.5152058 Z"/>
    <g transform="translate(36 75)">
      <path fill-rule="nonzero" d="M1.54348727,5.57247878 C0.122746468,6.42492326 -1.7200343,5.96422806 -2.57247878,4.54348727 C-3.42492326,3.12274647 -2.96422806,1.2799657 -1.54348727,0.427521223 C2.2387688,-1.84183242 6.09932741,-3 10,-3 C13.9006726,-3 17.7612312,-1.84183242 21.5434873,0.427521223 C22.9642281,1.2799657 23.4249233,3.12274647 22.5724788,4.54348727 C21.7200343,5.96422806 19.8772535,6.42492326 18.4565127,5.57247878 C15.5721021,3.84183242 12.7659941,3 10,3 C7.23400592,3 4.42789787,3.84183242 1.54348727,5.57247878 Z"/>
      <circle cx="10" cy="12" r="4"/>
    </g>
    <g transform="translate(84 75)">
      <path fill-rule="nonzero" d="M1.54348727,5.57247878 C0.122746468,6.42492326 -1.7200343,5.96422806 -2.57247878,4.54348727 C-3.42492326,3.12274647 -2.96422806,1.2799657 -1.54348727,0.427521223 C2.2387688,-1.84183242 6.09932741,-3 10,-3 C13.9006726,-3 17.7612312,-1.84183242 21.5434873,0.427521223 C22.9642281,1.2799657 23.4249233,3.12274647 22.5724788,4.54348727 C21.7200343,5.96422806 19.8772535,6.42492326 18.4565127,5.57247878 C15.5721021,3.84183242 12.7659941,3 10,3 C7.23400592,3 4.42789787,3.84183242 1.54348727,5.57247878 Z"/>
      <circle cx="10" cy="12" r="4"/>
    </g>
    <path fill-rule="nonzero" d="M67 98C67 96.3431458 68.3431458 95 70 95 71.6568542 95 73 96.3431458 73 98L73 117.605903C73 119.262757 71.6568542 120.605903 70 120.605903 68.3431458 120.605903 67 119.262757 67 117.605903L67 98zM53.1951651 136.890024C51.5990487 136.445526 50.6654776 134.791281 51.1099756 133.195165 51.5544737 131.599049 53.2087185 130.665478 54.8048349 131.109976 60.130289 132.593047 65.3066203 133.331767 70.33907 133.331767 75.3543357 133.331767 80.2815249 132.598154 85.1299783 131.128927 86.7156283 130.648427 88.3905737 131.544328 88.8710734 133.129978 89.3515731 134.715628 88.4556717 136.390574 86.8700217 136.871073 81.4586956 138.510868 75.9452648 139.331767 70.33907 139.331767 64.7500591 139.331767 59.033677 138.515975 53.1951651 136.890024z"/>
    <path fill-rule="nonzero" d="M74.4331177,153.016152 C72.4255263,151.120093 69.2609928,151.210508 67.3649342,153.2181 L62.5527284,158.313376 C62.3774111,158.499006 62.2797415,158.744668 62.2797415,159 C62.2797415,159.552285 62.7274568,160 63.2797415,160 L78.7202585,160 C78.9755909,160 79.221252,159.90233 79.406882,159.727013 C79.8084003,159.347801 79.8264833,158.714895 79.4472716,158.313376 L74.6350658,153.2181 C74.5696864,153.148874 74.5023429,153.081531 74.4331177,153.016152 Z M83.8093506,154.193635 C86.4638325,157.004263 86.3372512,161.43461 83.5266232,164.089092 C82.227213,165.316313 80.5075855,166 78.7202585,166 L63.2797415,166 C59.4137483,166 56.2797415,162.865993 56.2797415,159 C56.2797415,157.212673 56.9634287,155.493045 58.1906494,154.193635 L63.0028553,149.098358 C67.1741841,144.681657 74.1361578,144.482744 78.5528589,148.654073 C78.7051544,148.797907 78.85331,148.946063 78.9971447,149.098358 L83.8093506,154.193635 Z" transform="matrix(1 0 0 -1 0 311.651)"/>
    <path fill-rule="nonzero" d="M7.00913099,59.9710476 L4.41560563,59.2248168 L4.88423809,56.5670701 C6.25110452,48.8151853 12.3032369,37.1645142 20.7337507,28.2522825 C32.2729586,16.0537264 47.3109023,9.23116092 65.4930991,10.0839414 C89.9408804,11.9228376 104.215633,21.6517463 113.308497,41.0438455 L113.899277,42.3037858 L113.318945,43.5685725 C105.875507,59.7909279 93.1967268,68.0789108 75.7324065,68.1082853 L72.1510384,68.114309 L74.6723605,53.815181 C53.803141,64.8762905 31.1928949,66.9294024 7.00913099,59.9710476 Z M77.1626414,45.4735265 L82.8560307,41.9559039 L79.3279627,61.9645715 C92.0887146,60.9431234 101.296823,54.4725824 107.267485,42.3257429 C99.0954863,25.761646 86.7993623,17.7034606 65.1277289,16.0722057 C48.8768387,15.3110802 35.4889715,21.3850224 25.0925553,32.3754878 C18.4100389,39.439842 13.3649359,48.4242688 11.4296443,54.9601208 C35.1363048,61.1024694 56.982632,57.9416107 77.1626414,45.4735265 Z" transform="rotate(-10 59.157 39.063)"/>
  </g>
</svg>
