<svg xmlns="http://www.w3.org/2000/svg" width="200" height="200" viewBox="0 0 200 200">
  <g fill="#000000" fill-rule="evenodd" transform="translate(14 4)">
    <path fill-rule="nonzero" d="M162,105 C162,121.016258 149.016258,134 133,134 C131.89162,134 130.79028,133.937682 129.699627,133.813987 L130.375777,127.852207 C131.24206,127.950455 132.117659,128 133,128 C145.702549,128 156,117.702549 156,105 C156,103.833732 155.91344,102.679401 155.742344,101.543058 L155.448425,99.5909772 L157.124904,98.5486597 C163.836191,94.3760491 168,87.0479486 168,79 C168,67.4155653 159.38514,57.6774916 148.005551,56.1942643 L143.495464,55.6064151 L145.8113,51.69191 C147.888666,48.1804973 149,44.1751613 149,40 C149,27.2974508 138.702549,17 126,17 C120.401843,17 115.121628,19.0032247 110.972807,22.5872694 L108.004595,25.1514199 L106.307122,21.6153579 C101.763008,12.1493626 92.1865289,6 81.5,6 C71.4170852,6 62.2964343,11.4705731 57.4695254,20.1175639 L55.8538668,23.0118769 L53.1345464,21.1164357 C49.3095845,18.450332 44.7673517,17 40,17 C27.2974508,17 17,27.2974508 17,40 C17,44.8504506 18.5015602,49.4673211 21.2548977,53.3310033 L23.4196833,56.3687869 L19.9883076,57.8316905 C11.5751105,61.4185015 6,69.695688 6,79 C6,86.709585 9.81833066,93.7685849 16.0748881,98.0278367 L17.6741294,99.1165458 L17.3421651,101.0225 C17.1151185,102.326075 17,103.655036 17,105 C17,117.702549 27.2974508,128 40,128 L40,134 C23.9837423,134 11,121.016258 11,105 C11,103.949343 11.0559963,102.905263 11.1670973,101.870929 C4.19800113,96.4342668 0,88.0701019 0,79 C0,68.4594099 5.67625207,58.9634154 14.5233175,53.8651849 C12.2304374,49.6610643 11,44.9204464 11,40 C11,23.9837423 23.9837423,11 40,11 C44.9260262,11 49.6725784,12.2331105 53.8821316,14.5326194 C60.051352,5.55546825 70.2897313,0 81.5,0 C93.2731375,0 103.942625,6.12946449 109.967732,15.8305993 C114.660789,12.7108763 120.200734,11 126,11 C142.016258,11 155,23.9837423 155,40 C155,43.850876 154.246885,47.5954195 152.813963,51.0643434 C165.125381,54.4951218 174,65.7947846 174,79 C174,88.4845376 169.407735,97.1828316 161.899477,102.570079 C161.966359,103.375183 162,104.185644 162,105 Z"/>
    <path fill-rule="nonzero" d="M137.5 79L137.5 73 139.5 73C145.29899 73 150 77.7010101 150 83.5L150 98.5C150 104.29899 145.29899 109 139.5 109L137.5 109 137.5 103 139.5 103C141.985281 103 144 100.985281 144 98.5L144 83.5C144 81.0147186 141.985281 79 139.5 79L137.5 79zM34.5 103L34.5 109 32.5 109C26.7010101 109 22 104.29899 22 98.5L22 83.5C22 77.7010101 26.7010101 73 32.5 73L34.5 73 34.5 79 32.5 79C30.0147186 79 28 81.0147186 28 83.5L28 98.5C28 100.985281 30.0147186 103 32.5 103L34.5 103z"/>
    <path fill-rule="nonzero" d="M64.9520216,165.670525 C43.5885344,142.835486 33,126.608549 33,116 C33,105.992382 33.0486139,97.5848794 33.134281,89.7570206 C33.1581155,87.579139 33.2682028,79.2722924 33.2682028,78.2870785 C33.2682028,64.2975893 38.8287978,54.6692647 49.4118736,49.0153738 C58.1619843,44.3407242 69.9764558,42.4511719 86,42.4511719 C102.027356,42.4511719 113.860803,44.3412272 122.628048,49.0139894 C133.237612,54.6686699 138.81683,64.2987128 138.81683,78.2870785 C138.81683,79.295004 138.892717,87.7766942 138.908332,89.8764311 C138.966836,97.7432739 139,106.113904 139,116 C139,126.317763 128.668083,142.443813 108.016654,165.159077 L103.577129,161.122913 C123.196511,139.542835 133,124.241556 133,116 C133,106.129295 132.966894,97.7734734 132.908498,89.9210503 C132.893119,87.8530986 132.81683,79.3264459 132.81683,78.2870785 C132.81683,56.3760934 117.947739,48.4511719 86,48.4511719 C54.0822312,48.4511719 39.2682028,56.3654023 39.2682028,78.2870785 C39.2682028,79.3188755 39.1572516,87.6909122 39.1339217,89.82268 C39.0484877,97.6292366 39,106.014923 39,116 C39,124.499122 49.0289819,139.868544 69.0934012,161.320034 L64.9520216,165.670525 Z"/>
    <path fill-rule="nonzero" d="M86.226561 150.725584C73.7791806 150.741361 68.9670599 154.894164 70.0765152 163.957949 74.0208763 175.527134 79.4035011 180.905126 86.2189559 180.896487 93.0365716 180.887845 98.4232461 175.486157 102.368953 163.889984 103.477978 154.840213 98.6720652 150.709809 86.226561 150.725584zM108.150655 165.522249C103.466462 179.485616 96.1618525 186.883889 86.226561 186.896482 76.2893967 186.909078 68.9808664 179.533128 64.2954097 165.59254L64.2039623 165.320457 64.1657673 165.035971C62.3862745 151.781841 70.326271 144.745733 86.2189559 144.725588 102.113815 144.705441 110.060061 151.718499 108.279704 164.96765L108.241616 165.251101 108.150655 165.522249zM78.0981866 108.761235C77.6777681 107.158608 78.6361377 105.518605 80.238765 105.098187 81.8413923 104.677768 83.481395 105.636138 83.9018134 107.238765L84.5563913 109.734003C85.1331003 111.932407 87.1199572 113.465278 89.392747 113.465278L91.9497989 113.465278C93.6066532 113.465278 94.9497989 114.808424 94.9497989 116.465278 94.9497989 118.122132 93.6066532 119.465278 91.9497989 119.465278L89.392747 119.465278C84.3926094 119.465278 80.0215243 116.092962 78.7527644 111.256473L78.0981866 108.761235z"/>
    <g transform="translate(52 77)">
      <path fill-rule="nonzero" d="M1.54348727,5.57247878 C0.122746468,6.42492326 -1.7200343,5.96422806 -2.57247878,4.54348727 C-3.42492326,3.12274647 -2.96422806,1.2799657 -1.54348727,0.427521223 C2.2387688,-1.84183242 6.09932741,-3 10,-3 C13.9006726,-3 17.7612312,-1.84183242 21.5434873,0.427521223 C22.9642281,1.2799657 23.4249233,3.12274647 22.5724788,4.54348727 C21.7200343,5.96422806 19.8772535,6.42492326 18.4565127,5.57247878 C15.5721021,3.84183242 12.7659941,3 10,3 C7.23400592,3 4.42789787,3.84183242 1.54348727,5.57247878 Z"/>
      <circle cx="10" cy="12" r="4"/>
    </g>
    <g transform="translate(100 77)">
      <path fill-rule="nonzero" d="M1.54348727,5.57247878 C0.122746468,6.42492326 -1.7200343,5.96422806 -2.57247878,4.54348727 C-3.42492326,3.12274647 -2.96422806,1.2799657 -1.54348727,0.427521223 C2.2387688,-1.84183242 6.09932741,-3 10,-3 C13.9006726,-3 17.7612312,-1.84183242 21.5434873,0.427521223 C22.9642281,1.2799657 23.4249233,3.12274647 22.5724788,4.54348727 C21.7200343,5.96422806 19.8772535,6.42492326 18.4565127,5.57247878 C15.5721021,3.84183242 12.7659941,3 10,3 C7.23400592,3 4.42789787,3.84183242 1.54348727,5.57247878 Z"/>
      <circle cx="10" cy="12" r="4"/>
    </g>
    <path fill-rule="nonzero" d="M69.1951651,133.890024 C67.5990487,133.445526 66.6654776,131.791281 67.1099756,130.195165 C67.5544737,128.599049 69.2087185,127.665478 70.8048349,128.109976 C76.130289,129.593047 81.3066203,130.331767 86.33907,130.331767 C91.3543357,130.331767 96.2815249,129.598154 101.129978,128.128927 C102.715628,127.648427 104.390574,128.544328 104.871073,130.129978 C105.351573,131.715628 104.455672,133.390574 102.870022,133.871073 C97.4586956,135.510868 91.9452648,136.331767 86.33907,136.331767 C80.7500591,136.331767 75.033677,135.515975 69.1951651,133.890024 Z"/>
  </g>
</svg>
