<svg xmlns="http://www.w3.org/2000/svg" width="200" height="200" viewBox="0 0 200 200">
  <g fill="#000000" fill-rule="evenodd" transform="translate(28 16)">
    <path fill-rule="nonzero" d="M95.6596975,98.6928899 L100.628176,101.30711 C98.7675042,119.387563 96.963146,134.133696 95.2086594,143.570867 C94.3766483,148.046154 95.904153,150.245832 100.643975,151.259702 C106.394005,152.48966 116.033174,151.502992 129.370315,148.202741 L130.811536,154.027076 C116.659961,157.528858 106.249484,158.594477 99.3889382,157.126974 C91.5181845,155.443383 87.8741835,150.195853 89.3097369,142.474185 C91.0287778,133.227671 93.8142452,116.625454 95.6596975,98.6928899 Z" transform="matrix(-1 0 0 1 219.815 0)"/>
    <path fill-rule="nonzero" d="M9.49358568,57.8419168 L15.4740294,58.3259551 C12.2278648,98.4333213 9.14426288,126.347542 6.20865944,142.137798 C5.28527257,147.104584 7.31768208,149.43457 13.661253,150.148649 C21.1434297,150.990896 33.4081397,148.992964 50.2687896,144.094528 L51.9427251,149.856293 C34.3787792,154.959055 21.4567648,157.064062 12.9900885,156.110992 C3.38480632,155.029752 -1.2937659,149.666163 0.309736869,141.041115 C3.19705009,125.510607 6.2631878,97.75448 9.49358568,57.8419168 Z"/>
    <path fill-rule="nonzero" d="M118.429884,52.3030851 L124.379548,51.5275239 C124.670187,53.757139 124.81683,56.0134955 124.81683,58.2870785 C124.81683,59.2970247 124.892752,69.0261772 124.908349,71.3788533 C124.966841,80.2020722 125,89.1145203 125,99 C125,107.361434 117.113502,122.590716 106.089737,136.667051 C94.1279231,151.941189 81.6500496,162 72.3463857,162 C63.0422781,162 50.3825823,151.988473 38.2754686,136.846675 C27.0068368,122.753527 19,107.54473 19,99 C19,87.9912073 19.072023,75.5630643 19.2160527,61.7151576 L25.2157282,61.7775592 C25.071904,75.6057021 25,88.0133201 25,99 C25,105.776083 32.4902381,120.003613 42.9616362,133.099699 C53.9721745,146.870062 65.5170915,156 72.3463857,156 C79.1387019,156 90.5024176,146.839347 101.365929,132.96764 C111.61361,119.882293 119,105.618749 119,99 C119,89.1286792 118.966889,80.2292876 118.908481,71.4186281 C118.893083,69.0959895 118.81683,59.3244253 118.81683,58.2870785 C118.81683,56.2730091 118.687024,54.2757144 118.429884,52.3030851 Z"/>
    <path fill-rule="nonzero" d="M69 102C69 100.343146 70.3431458 99 72 99 73.6568542 99 75 100.343146 75 102L75 116C75 117.656854 73.6568542 119 72 119 70.3431458 119 69 117.656854 69 116L69 102zM106.201532 27.4398744L110.615234 23.3754883C117.741064 31.1137516 122.815627 40.4767318 124.300871 50.9493632 124.860573 54.8958916 118.682291 56.361033 110.21267 56.6078021 101.397775 56.8646311 91.9626068 55.1516659 82.8861469 50.9863612L85.3886867 45.53317C93.5841044 49.294153 102.106653 50.8414312 110.03793 50.6103471 112.971761 50.5248677 115.627687 50.1888834 117.644389 49.710635 117.766928 49.6815757 117.885348 49.652347 117.999286 49.6231255 116.387536 41.1993342 112.015306 33.7533156 106.201532 27.4398744z"/>
    <path fill-rule="nonzero" d="M17.8463882,27.9780678 C20.4412647,30.6684176 24.2130562,34.0591414 28.4656412,37.4978264 C38.5626962,45.6624111 49.3495927,52.5685443 57.6300034,55.752111 C65.5717583,58.8054748 76.9441556,59.683952 89.3820935,58.7920027 C94.1244341,58.45192 98.7193004,57.8630465 102.365068,57.1764099 C103.510783,56.9606284 104.5086,56.7442557 105.294815,56.5447728 C104.369745,26.7856539 82.8944005,6.38329126 55.4288476,6.38329126 C49.6376641,6.38329126 42.0283861,7.75402589 35.1264236,10.4409844 C26.775982,13.691841 19.9606635,18.5852115 15.4004085,25.1845391 C15.9357807,25.905782 16.7686629,26.8606897 17.8463882,27.9780678 Z M32.9497323,4.84973993 C40.5601651,1.8869714 48.9074556,0.383291264 55.4288476,0.383291264 C86.7910467,0.383291264 111.325883,24.3621514 111.325883,58.5522845 C111.325883,60.3549622 110.591011,60.9294507 109.21398,61.5666442 C108.812465,61.7524372 108.324466,61.9244357 107.730687,62.0990999 C106.662784,62.4132311 105.201682,62.7476543 103.475572,63.0727462 C99.601725,63.8023387 94.7794704,64.4203541 89.8112634,64.7766341 C76.572244,65.7260305 64.4085465,64.7864282 55.4768399,61.352458 C46.5045333,57.9028784 35.2350932,50.6878046 24.6930266,42.1633787 C20.2604157,38.5791229 16.3091265,35.0270363 13.5278122,32.143389 C12.114635,30.6782168 11.0215498,29.4050913 10.2911539,28.3557095 C8.93506603,26.4073772 8.39543532,24.9902436 9.52335766,23.1992438 C14.8180042,14.7920063 22.9795784,8.73115624 32.9497323,4.84973993 Z" transform="matrix(-1 0 0 1 120.239 0)"/>
    <g transform="translate(32 72)">
      <path fill-rule="nonzero" d="M5.41006864,0.357792827 C8.56470837,-1.2051655 11.7685893,-2 15,-2 C18.9006726,-2 22.7612312,-0.841832418 26.5434873,1.42752122 C27.9642281,2.2799657 28.4249233,4.12274647 27.5724788,5.54348727 C26.7200343,6.96422806 24.8772535,7.42492326 23.4565127,6.57247878 C20.5721021,4.84183242 17.7659941,4 15,4 C12.2340059,4 9.42789787,4.84183242 6.54348727,6.57247878 L4.65892067,7.70321874 L-1.44638742,2.30391212 C-2.68752119,1.20629973 -2.80386826,-0.689628642 -1.70625587,-1.93076242 C-0.608643475,-3.17189619 1.28728489,-3.28824326 2.52841867,-2.19063087 L5.41006864,0.357792827 Z"/>
      <circle cx="15" cy="13" r="4"/>
    </g>
    <g transform="matrix(-1 0 0 1 111 72)">
      <path fill-rule="nonzero" d="M4.680106,0.225937848 C7.74748469,-1.24985744 10.8607515,-2 14,-2 C17.9006726,-2 21.7612312,-0.841832418 25.5434873,1.42752122 C26.9642281,2.2799657 27.4249233,4.12274647 26.5724788,5.54348727 C25.7200343,6.96422806 23.8772535,7.42492326 22.4565127,6.57247878 C19.5721021,4.84183242 16.7659941,4 14,4 C11.2340059,4 8.42789787,4.84183242 5.54348727,6.57247878 L3.39608366,7.86092094 L-1.71429086,2.03492085 C-2.80686486,0.789349477 -2.68283598,-1.10609186 -1.4372646,-2.19866586 C-0.191693227,-3.29123986 1.70374811,-3.16721098 2.79632211,-1.9216396 L4.680106,0.225937848 Z"/>
      <circle cx="14" cy="13" r="4"/>
    </g>
    <path fill-rule="nonzero" d="M58.9557178 130.812379C57.4024839 130.235638 56.61088 128.508952 57.1876212 126.955718 57.7643623 125.402484 59.4910482 124.61088 61.0442822 125.187621 64.9057708 126.621455 68.6387234 127.331767 72.2543025 127.331767 75.8480459 127.331767 79.382169 126.630169 82.8761469 125.218462 84.412348 124.597775 86.1608512 125.339946 86.7815381 126.876147 87.402225 128.412348 86.6600542 130.160851 85.1238531 130.781538 80.9229964 132.478853 76.6266545 133.331767 72.2543025 133.331767 67.9037861 133.331767 63.4672038 132.487567 58.9557178 130.812379zM30 67C27.2385763 67 25 69.2385763 25 72L25 85.4545455C25 88.2159692 27.2385763 90.4545455 30 90.4545455L58 90.4545455C60.7614237 90.4545455 63 88.2159692 63 85.4545455L63 72C63 69.2385763 60.7614237 67 58 67L30 67zM30 61L58 61C64.0751322 61 69 65.9248678 69 72L69 85.4545455C69 91.5296777 64.0751322 96.4545455 58 96.4545455L30 96.4545455C23.9248678 96.4545455 19 91.5296777 19 85.4545455L19 72C19 65.9248678 23.9248678 61 30 61zM85 67C82.2385763 67 80 69.2385763 80 72L80 85.4545455C80 88.2159692 82.2385763 90.4545455 85 90.4545455L113 90.4545455C115.761424 90.4545455 118 88.2159692 118 85.4545455L118 72C118 69.2385763 115.761424 67 113 67L85 67zM85 61L113 61C119.075132 61 124 65.9248678 124 72L124 85.4545455C124 91.5296777 119.075132 96.4545455 113 96.4545455L85 96.4545455C78.9248678 96.4545455 74 91.5296777 74 85.4545455L74 72C74 65.9248678 78.9248678 61 85 61z"/>
    <path fill-rule="nonzero" d="M67,79 C65.3431458,79 64,77.6568542 64,76 C64,74.3431458 65.3431458,73 67,73 L75,73 C76.6568542,73 78,74.3431458 78,76 C78,77.6568542 76.6568542,79 75,79 L67,79 Z"/>
  </g>
</svg>
