<svg xmlns="http://www.w3.org/2000/svg" width="200" height="200" viewBox="0 0 200 200">
  <g fill="#000000" fill-rule="evenodd" transform="translate(30 6)">
    <path fill-rule="nonzero" d="M18.5 101L18.5 107 16.5 107C10.7010101 107 6 102.29899 6 96.5L6 85.5C6 79.7010101 12 83.0147186 12 85.5L12 96.5C12 98.9852814 14.0147186 101 16.5 101L18.5 101zM121.5 77L121.5 71 123.5 71C129.29899 71 134 75.7010101 134 81.5L134 96.5C134 102.29899 129.29899 107 123.5 107L121.5 107 121.5 101 123.5 101C125.985281 101 128 98.9852814 128 96.5L128 81.5C128 79.0147186 125.985281 77 123.5 77L121.5 77z"/>
    <path fill-rule="nonzero" d="M95.6624738,29.5542567 L98.9293927,24.521639 C113.715967,34.1203293 122.81683,50.4364533 122.81683,68.2870785 C122.81683,69.2970247 122.892752,79.0261772 122.908349,81.3788533 C122.966841,90.2020722 123,99.1145203 123,109 C123,117.361434 115.113502,132.590716 104.089737,146.667051 C92.1279231,161.941189 79.6500496,172 70.3463857,172 C61.0422781,172 48.3825823,161.988473 36.2754686,146.846675 C25.0068368,132.753527 17,117.54473 17,109 C17,99.1308799 17.0473881,90.2725556 17.1309577,81.599629 L23.1306792,81.6574405 C23.0472862,90.3120287 23,99.1513201 23,109 C23,115.776083 30.4902381,130.003613 40.9616362,143.099699 C51.9721745,156.870062 63.5170915,166 70.3463857,166 C77.1387019,166 88.5024176,156.839347 99.3659295,142.96764 C109.61361,129.882293 117,115.618749 117,109 C117,99.1286792 116.966889,90.2292876 116.908481,81.4186281 C116.893083,79.0959895 116.81683,69.3244253 116.81683,68.2870785 C116.81683,52.4946029 108.765483,38.0600623 95.6624738,29.5542567 Z"/>
    <path fill-rule="nonzero" d="M67 105C67 103.343146 68.3431458 102 70 102 71.6568542 102 73 103.343146 73 105L73 119C73 120.656854 71.6568542 122 70 122 68.3431458 122 67 120.656854 67 119L67 105zM95.2874227 29.3133187L98.5063525 24.2498722C111.386823 32.4382338 120.152669 45.8021332 122.300871 60.9493632 122.860573 64.8958916 116.682291 66.361033 108.21267 66.6078021 99.3977748 66.8646311 89.9626068 65.1516659 80.8861469 60.9863612 79.7758983 60.4768538 78.6495546 59.9183363 77.5090487 59.3129776L80.3220406 54.0132534C81.3626406 54.565584 82.385709 55.0728906 83.3886867 55.53317 91.5841044 59.294153 100.106653 60.8414312 108.03793 60.6103471 110.971761 60.5248677 113.627687 60.1888834 115.644389 59.710635 115.766886 59.6815857 115.885267 59.6523672 115.999168 59.6231556 113.606942 47.1271599 106.081214 36.1751381 95.2874227 29.3133187z"/>
    <g transform="translate(36 79)">
      <path fill-rule="nonzero" d="M1.54348727,5.57247878 C0.122746468,6.42492326 -1.7200343,5.96422806 -2.57247878,4.54348727 C-3.42492326,3.12274647 -2.96422806,1.2799657 -1.54348727,0.427521223 C2.2387688,-1.84183242 6.09932741,-3 10,-3 C13.9006726,-3 17.7612312,-1.84183242 21.5434873,0.427521223 C22.9642281,1.2799657 23.4249233,3.12274647 22.5724788,4.54348727 C21.7200343,5.96422806 19.8772535,6.42492326 18.4565127,5.57247878 C15.5721021,3.84183242 12.7659941,3 10,3 C7.23400592,3 4.42789787,3.84183242 1.54348727,5.57247878 Z"/>
      <circle cx="10" cy="12" r="4"/>
    </g>
    <g transform="matrix(-1 0 0 1 110 76)">
      <path fill-rule="nonzero" d="M6.62941058,2.25039681 C9.7131801,0.758431219 12.8434556,4.4408921e-16 16,0 C19.9006726,0 23.7612312,1.15816758 27.5434873,3.42752122 C28.9642281,4.2799657 29.4249233,6.12274647 28.5724788,7.54348727 C27.7200343,8.96422806 25.8772535,9.42492326 24.4565127,8.57247878 C21.5721021,6.84183242 18.7659941,6 16,6 C13.2340059,6 10.4278979,6.84183242 7.54348727,8.57247878 L5.44556547,9.83123185 L-1.66842639,2.08601638 C-2.78921968,0.865775253 -2.70860127,-1.03200811 -1.48836013,-2.15280139 C-0.268119003,-3.27359468 1.62966436,-3.19297627 2.75045764,-1.97273513 L6.62941058,2.25039681 Z"/>
      <circle cx="16" cy="15" r="4"/>
    </g>
    <path fill-rule="nonzero" d="M53.1951651 137.890024C51.5990487 137.445526 50.6654776 135.791281 51.1099756 134.195165 51.5544737 132.599049 53.2087185 131.665478 54.8048349 132.109976 60.130289 133.593047 65.3066203 134.331767 70.33907 134.331767 75.3543357 134.331767 80.2815249 133.598154 85.1299783 132.128927 86.7156283 131.648427 88.3905737 132.544328 88.8710734 134.129978 89.3515731 135.715628 88.4556717 137.390574 86.8700217 137.871073 81.4586956 139.510868 75.9452648 140.331767 70.33907 140.331767 64.7500591 140.331767 59.033677 139.515975 53.1951651 137.890024zM46.2216517 4.91824798L52.4926332 15.0034243 45.8181491 13.7746351C36.3681448 12.0348657 26.9942722 15.4733051 17.5098971 24.3495591 8.46439905 32.8150759 3.58905525 51.6799093 3.27587414 80.8598591 9.64382201 80.5744374 20.1273972 79.0882975 30.1890611 76.7740423 45.6453778 73.2189781 59.0885325 68.1272842 68.2889597 61.7389129 78.7069609 54.505112 86.0573365 46.8288618 90.5931132 39.3387786 92.3269394 36.4756519 93.5516303 33.7813691 94.2665867 31.4430676 94.7414809 29.8899019 94.9367738 28.6329994 94.9151095 28.0662131 88.2252477 8.32057851 72.3325427.614807297 46.2216517 4.91824798zM40.6603787 7.33712385L36.5319737.697701869 40.7502648-.168214437C72.2735297-6.63920201 92.6597493 2.24990036 100.70582 26.462773L100.817648 26.9130682C101.360955 30.1556246 99.5174929 36.1847606 95.7254138 42.4467507 90.7430601 50.6742819 82.8052595 58.9640001 71.7110403 66.6673371 61.7718225 73.5686919 47.6693015 78.9101257 31.5339873 82.6213642 19.2619482 85.4440216 6.38326931 87.0812159.169961978 86.89514L-2.74023437 86.8079855-2.74023438 83.8964844C-2.74023438 51.4587657 2.49861471 30.1805903 13.4100248 19.9688003 22.2301125 11.7142409 31.3476143 7.45631825 40.6603787 7.33712385zM122 105C122 103.343146 123.343146 102 125 102 126.656854 102 128 103.343146 128 105L128 123C128 124.656854 126.656854 126 125 126 123.343146 126 122 124.656854 122 123L122 105zM12 105C12 103.343146 13.3431458 102 15 102 16.6568542 102 18 103.343146 18 105L18 123C18 124.656854 16.6568542 126 15 126 13.3431458 126 12 124.656854 12 123L12 105z"/>
  </g>
</svg>
