<svg xmlns="http://www.w3.org/2000/svg" width="200" height="200" viewBox="0 0 200 200">
  <g fill="#000000" fill-rule="evenodd" transform="translate(36 3)">
    <path fill-rule="nonzero" d="M115.5 80L115.5 74 117.5 74C123.29899 74 128 78.7010101 128 84.5L128 99.5C128 105.29899 123.29899 110 117.5 110L115.5 110 115.5 104 117.5 104C119.985281 104 122 101.985281 122 99.5L122 84.5C122 82.0147186 119.985281 80 117.5 80L115.5 80zM12.5 104L12.5 110 10.5 110C4.70101013 110 .8817842e-16 105.29899 0 99.5L0 84.5C-.8817842e-16 78.7010101 4.70101013 74 10.5 74L12.5 74 12.5 80 10.5 80C8.01471863 80 6 82.0147186 6 84.5L6 99.5C6 101.985281 8.01471863 104 10.5 104L12.5 104zM84 20L78 20C78 12.2680135 71.7319865 6 64 6 56.2680135 6 50 12.2680135 50 20L44 20C44 8.954305 52.954305 0 64 0 75.045695 0 84 8.954305 84 20z"/>
    <path fill-rule="nonzero" d="M111,131 C111,124.508281 110.985212,116.372556 110.958038,106.79076 C110.944351,101.964563 110.927825,96.875285 110.908434,91.4093861 C110.892981,87.0537484 110.81683,67.3174836 110.81683,66.2870785 C110.81683,40.730073 89.8818265,20 64.0425163,20 C38.2032061,20 17.2682028,40.730073 17.2682028,66.2870785 C17.2682028,66.9834248 16.9549095,77.3637086 16.8644035,80.8236231 C16.6199947,90.1670251 16.4755015,98.8052064 16.4634442,106.977404 C16.4496279,116.341839 16.6157632,124.393423 16.9948012,130.823462 C18.5169812,156.645872 34.1500252,175.223971 64.407616,186.815396 C95.6808554,176.19051 111,157.706711 111,131 Z M64.0425163,14 C93.1823946,14 116.81683,37.4030804 116.81683,66.2870785 C116.81683,67.3039666 116.892855,87.0074193 116.908396,91.3880999 C116.927792,96.8553319 116.944323,101.945998 116.958014,106.773744 C116.985203,116.360727 117,124.501634 117,131 C117,160.774818 99.5443872,181.516131 65.2885915,192.848201 L64.2850713,193.180173 L63.2950931,192.809766 C30.3011941,180.464878 12.6943676,159.831764 11.0051988,131.176538 C10.617906,124.606464 10.4494714,116.443451 10.4634507,106.968552 C10.4755911,98.7400633 10.6208611,90.0554422 10.8664553,80.6667262 C10.9602899,77.0795613 11.2682028,66.8775455 11.2682028,66.2870785 C11.2682028,37.4030804 34.9026379,14 64.0425163,14 Z"/>
    <path fill-rule="nonzero" d="M60,82 C58.3431458,82 57,80.6568542 57,79 C57,77.3431458 58.3431458,76 60,76 L68,76 C69.6568542,76 71,77.3431458 71,79 C71,80.6568542 69.6568542,82 68,82 L60,82 Z"/>
    <path fill-rule="nonzero" d="M20 79C20 88.9411255 28.0588745 97 38 97 47.9411255 97 56 88.9411255 56 79 56 76.9836131 55.6694448 75.01692 55.0309572 73.1559237 54.9775752 73.1433044 54.9214148 73.1304934 54.8626058 73.1175754 53.9269438 72.9120481 52.5379026 72.7231014 50.7960032 72.5664671 47.3787291 72.2591806 42.7827273 72.0913948 38 72.0913948 33.2172727 72.0913948 28.6212709 72.2591806 25.2039968 72.5664671 23.4620974 72.7231014 22.0730562 72.9120481 21.1373942 73.1175754 21.0785852 73.1304934 21.0224248 73.1433044 20.9690428 73.1559237 20.3305552 75.01692 20 76.9836131 20 79zM38 103C24.745166 103 14 92.254834 14 79 14 75.8427251 14.6115114 72.7654891 15.7853164 69.9020258 17.0826961 66.7371053 24.263516 66.0913948 38 66.0913948 51.736484 66.0913948 58.9173039 66.7371053 60.2146836 69.9020258 61.3884886 72.7654891 62 75.8427251 62 79 62 92.254834 51.254834 103 38 103zM72 79C72 88.9411255 80.0588745 97 90 97 99.9411255 97 108 88.9411255 108 79 108 76.9836131 107.669445 75.01692 107.030957 73.1559237 106.977575 73.1433044 106.921415 73.1304934 106.862606 73.1175754 105.926944 72.9120481 104.537903 72.7231014 102.796003 72.5664671 99.3787291 72.2591806 94.7827273 72.0913948 90 72.0913948 85.2172727 72.0913948 80.6212709 72.2591806 77.2039968 72.5664671 75.4620974 72.7231014 74.0730562 72.9120481 73.1373942 73.1175754 73.0785852 73.1304934 73.0224248 73.1433044 72.9690428 73.1559237 72.3305552 75.01692 72 76.9836131 72 79zM90 103C76.745166 103 66 92.254834 66 79 66 75.8427251 66.6115114 72.7654891 67.7853164 69.9020258 69.0826961 66.7371053 76.263516 66.0913948 90 66.0913948 103.736484 66.0913948 110.917304 66.7371053 112.214684 69.9020258 113.388489 72.7654891 114 75.8427251 114 79 114 92.254834 103.254834 103 90 103zM110.040936 130.063199C108.912492 129.144414 107.073402 128.116669 104.552657 127.029855 99.2343667 124.736886 91.12248 122.275237 80.2625649 119.672994 78.9951587 119.369299 77.6592619 119.572472 76.5394499 120.239233L69.9709691 124.150249C66.5055057 126.21366 62.1886974 126.215061 58.721896 124.153898L52.0953851 120.214151C50.9905811 119.557297 49.6752558 119.351133 48.4224607 119.638457 37.2009644 122.21206 28.8496481 124.663169 23.4169675 126.962577 20.8480976 128.049864 18.9902626 129.080917 17.8751999 130.000283 17.4374546 130.361203 17.1582821 130.668974 17.0240733 130.895146 18.5992391 158.041304 33.7116366 176.415752 62.8195119 186.340689 63.8317075 186.685818 64.9278947 186.697321 65.9471086 186.373511 96.1772422 176.769168 110.993698 158.47385 110.999998 131.017522 110.793788 130.752595 110.494542 130.432528 110.040936 130.063199zM117 131C117 161.206614 100.386653 181.727342 67.763863 192.09185 65.521589 192.804234 63.1099825 192.778926 60.8831541 192.019643 29.5471645 181.334984 12.7586734 160.922654 11.0051988 131.176538 10.605574 124.397264 22.1648097 119.504762 47.0812068 113.790292 49.8373545 113.158179 52.731072 113.611741 55.1616415 115.056819L61.7881524 118.996566C63.3639712 119.933458 65.3261568 119.932822 66.9013672 118.994907L73.469848 115.083891C75.9334348 113.617018 78.8724075 113.170038 81.6607009 113.838166 105.696847 119.597685 117 124.471015 117 131z"/>
    <path fill-rule="nonzero" d="M61 168C61 166.343146 62.3431458 165 64 165 65.6568542 165 67 166.343146 67 168L67 186C67 187.656854 65.6568542 189 64 189 62.3431458 189 61 187.656854 61 186L61 168zM79 157C79 155.343146 80.3431458 154 82 154 83.6568542 154 85 155.343146 85 157L85 181C85 182.656854 83.6568542 184 82 184 80.3431458 184 79 182.656854 79 181L79 157zM97 143C97 141.343146 98.3431458 140 100 140 101.656854 140 103 141.343146 103 143L103 167C103 168.656854 101.656854 170 100 170 98.3431458 170 97 168.656854 97 167L97 143zM43 157C43 155.343146 44.3431458 154 46 154 47.6568542 154 49 155.343146 49 157L49 181C49 182.656854 47.6568542 184 46 184 44.3431458 184 43 182.656854 43 181L43 157zM25 143C25 141.343146 26.3431458 140 28 140 29.6568542 140 31 141.343146 31 143L31 167C31 168.656854 29.6568542 170 28 170 26.3431458 170 25 168.656854 25 167L25 143zM27.8303335 51.2917212C28.6014895 50.585014 29.1315905 49.654253 29.3460116 48.6304658 29.9120798 45.9276846 28.1799317 43.2777584 25.4771508 42.7116898 24.93804 42.5987789 24.3997687 42.48487 23.862337 42.3699632 20.4300214 47.9110527 18.2160498 54.1009912 17.3782246 60.6048311 19.9166691 58.4549768 23.404415 55.3477467 27.8303335 51.2917212zM19.9954826 37.3115048L21.1369704 35.6351223 23.1179851 36.0696718C24.3100578 36.3311613 25.5064293 36.5876398 26.7071001 36.8391073 32.6532186 38.0844584 36.4639443 43.9142958 35.2185942 49.8604145 34.7468677 52.1127466 33.5806454 54.160421 31.884102 55.7151769 26.5613934 60.5930439 22.5621102 64.1306493 19.8676913 66.3423042 18.4566555 67.5005222 17.3816256 68.3144235 16.5895223 68.813158 16.0073913 69.179687 15.523636 69.4226143 14.9678167 69.5600368 13.1260191 70.0154084 11 68.9151147 11 66.5195002 11 55.9667689 14.1648299 45.8743683 19.9954826 37.3115048z"/>
    <path fill-rule="nonzero" d="M108.830333,51.2917212 C109.60149,50.585014 110.13159,49.654253 110.346012,48.6304658 C110.91208,45.9276846 109.179932,43.2777584 106.477151,42.7116898 C105.93804,42.5987789 105.399769,42.48487 104.862337,42.3699632 C101.430021,47.9110527 99.2160498,54.1009912 98.3782246,60.6048311 C100.916669,58.4549768 104.404415,55.3477467 108.830333,51.2917212 Z M100.995483,37.3115048 L102.13697,35.6351223 L104.117985,36.0696718 C105.310058,36.3311613 106.506429,36.5876398 107.7071,36.8391073 C113.653219,38.0844584 117.463944,43.9142958 116.218594,49.8604145 C115.746868,52.1127466 114.580645,54.160421 112.884102,55.7151769 C107.561393,60.5930439 103.56211,64.1306493 100.867691,66.3423042 C99.4566555,67.5005222 98.3816256,68.3144235 97.5895223,68.813158 C97.0073913,69.179687 96.523636,69.4226143 95.9678167,69.5600368 C94.1260191,70.0154084 92,68.9151147 92,66.5195002 C92,55.9667689 95.1648299,45.8743683 100.995483,37.3115048 Z" transform="matrix(-1 0 0 1 208.454 0)"/>
    <path fill-rule="nonzero" d="M39.730352,30.3340939 C45.5795597,31.3880005 54.5423953,31.9814495 64.0425163,31.9814495 C73.5426372,31.9814495 82.5054728,31.3880005 88.3546805,30.3340939 C89.9713947,30.0427953 91.3084162,29.7204816 92.3045674,29.4012419 C84.2480289,23.3443489 74.4087445,20 64.0425163,20 C53.6762881,20 43.8370036,23.3443489 35.7804652,29.4012419 C36.7766164,29.7204816 38.1136378,30.0427953 39.730352,30.3340939 Z M30.5518521,25.8756825 C39.9235961,18.2433121 51.6586783,14 64.0425163,14 C76.4263542,14 88.1614364,18.2433121 97.5331804,25.8756825 C100.412807,28.220857 100.323163,31.6291231 97.3375078,33.6516791 C95.6835847,34.772087 93.0533106,35.5841136 89.4186244,36.239009 C83.1634906,37.3660552 73.869216,37.9814495 64.0425163,37.9814495 C54.2158165,37.9814495 44.9215419,37.3660552 38.6664081,36.239009 C35.0317219,35.5841136 32.4014478,34.772087 30.7475247,33.6516791 C27.761869,31.6291231 27.6722257,28.220857 30.5518521,25.8756825 Z"/>
    <g transform="translate(29 78)">
      <path fill-rule="nonzero" d="M1.54348727,5.57247878 C0.122746468,6.42492326 -1.7200343,5.96422806 -2.57247878,4.54348727 C-3.42492326,3.12274647 -2.96422806,1.2799657 -1.54348727,0.427521223 C2.2387688,-1.84183242 6.09932741,-3 10,-3 C13.9006726,-3 17.7612312,-1.84183242 21.5434873,0.427521223 C22.9642281,1.2799657 23.4249233,3.12274647 22.5724788,4.54348727 C21.7200343,5.96422806 19.8772535,6.42492326 18.4565127,5.57247878 C15.5721021,3.84183242 12.7659941,3 10,3 C7.23400592,3 4.42789787,3.84183242 1.54348727,5.57247878 Z"/>
      <circle cx="10" cy="12" r="4"/>
    </g>
    <g transform="translate(80 78)">
      <path fill-rule="nonzero" d="M1.54348727,5.57247878 C0.122746468,6.42492326 -1.7200343,5.96422806 -2.57247878,4.54348727 C-3.42492326,3.12274647 -2.96422806,1.2799657 -1.54348727,0.427521223 C2.2387688,-1.84183242 6.09932741,-3 10,-3 C13.9006726,-3 17.7612312,-1.84183242 21.5434873,0.427521223 C22.9642281,1.2799657 23.4249233,3.12274647 22.5724788,4.54348727 C21.7200343,5.96422806 19.8772535,6.42492326 18.4565127,5.57247878 C15.5721021,3.84183242 12.7659941,3 10,3 C7.23400592,3 4.42789787,3.84183242 1.54348727,5.57247878 Z"/>
      <circle cx="10" cy="12" r="4"/>
    </g>
    <path fill-rule="nonzero" d="M59 96C59 94.3431458 60.3431458 93 62 93 63.6568542 93 65 94.3431458 65 96L65 99.6059032C65 102.367327 67.2385763 104.605903 70 104.605903L70.7290958 104.605903C72.38595 104.605903 73.7290958 105.949049 73.7290958 107.605903 73.7290958 109.262757 72.38595 110.605903 70.7290958 110.605903L70 110.605903C63.9248678 110.605903 59 105.681035 59 99.6059032L59 96zM53.7362125 141.98838C52.0857757 141.842694 50.865934 140.386649 51.0116198 138.736212 51.1573057 137.085776 52.6133507 135.865934 54.2637875 136.01162 59.1840086 136.445933 63.9516964 136.445933 68.5686107 136.013097 72.6649389 135.629067 75.6861849 134.274414 77.7849733 131.976721 78.9023993 130.753396 80.7999533 130.667547 82.0232787 131.784973 83.2466042 132.902399 83.3324527 134.799953 82.2150267 136.023279 79.0464469 139.492148 74.6334481 141.470828 69.1286549 141.986903 64.1444479 142.454172 59.0130472 142.454172 53.7362125 141.98838z"/>
  </g>
</svg>
